<svg width="64" height="64" viewBox="0 0 64 64" fill="none" xmlns="http://www.w3.org/2000/svg">
<path d="M34.4534 6.02625L51.8134 15.3863C53.8401 16.4796 53.8401 19.5996 51.8134 20.6929L34.4534 30.0529C32.9067 30.8796 31.0934 30.8796 29.5467 30.0529L12.1867 20.6929C10.1601 19.5996 10.1601 16.4796 12.1867 15.3863L29.5467 6.02625C31.0934 5.19958 32.9067 5.19958 34.4534 6.02625Z" stroke="#C01130" stroke-width="2" stroke-linecap="round" stroke-linejoin="round"/>
<path opacity="0.4" d="M9.62658 27.0131L25.7599 35.0931C27.7599 36.1065 29.0399 38.1598 29.0399 40.3998V55.6531C29.0399 57.8665 26.7199 59.2798 24.7466 58.2931L8.61325 50.2131C6.61325 49.1998 5.33325 47.1465 5.33325 44.9065V29.6531C5.33325 27.4398 7.65325 26.0265 9.62658 27.0131Z" stroke="#C01130" stroke-width="2" stroke-linecap="round" stroke-linejoin="round"/>
<path opacity="0.4" d="M54.3733 27.0131L38.24 35.0931C36.24 36.1065 34.96 38.1598 34.96 40.3998V55.6531C34.96 57.8665 37.28 59.2798 39.2533 58.2931L55.3866 50.2131C57.3866 49.1998 58.6666 47.1465 58.6666 44.9065V29.6531C58.6666 27.4398 56.3466 26.0265 54.3733 27.0131Z" stroke="#C01130" stroke-width="2" stroke-linecap="round" stroke-linejoin="round"/>
</svg>
