<svg width="64" height="64" viewBox="0 0 64 64" fill="none" xmlns="http://www.w3.org/2000/svg">
<path d="M2.66675 58.666H61.3334" stroke="#C01130" stroke-width="2" stroke-miterlimit="10" stroke-linecap="round" stroke-linejoin="round"/>
<path opacity="0.4" d="M52.7468 58.6942V46.8008" stroke="#C01130" stroke-width="2" stroke-miterlimit="10" stroke-linecap="round" stroke-linejoin="round"/>
<path d="M52.8 29.0391C49.5467 29.0391 46.9333 31.6524 46.9333 34.9058V40.959C46.9333 44.2123 49.5467 46.8257 52.8 46.8257C56.0534 46.8257 58.6667 44.2123 58.6667 40.959V34.9058C58.6667 31.6524 56.0534 29.0391 52.8 29.0391Z" stroke="#C01130" stroke-width="2" stroke-miterlimit="10" stroke-linecap="round" stroke-linejoin="round"/>
<path d="M5.59985 58.6673V16.0807C5.59985 10.7207 8.26666 8.02734 13.5733 8.02734H30.1866C35.4933 8.02734 38.1332 10.7207 38.1332 16.0807V58.6673" stroke="#C01130" stroke-width="2" stroke-miterlimit="10" stroke-linecap="round" stroke-linejoin="round"/>
<path opacity="0.4" d="M15.4666 22H28.6666" stroke="#C01130" stroke-width="2" stroke-miterlimit="10" stroke-linecap="round" stroke-linejoin="round"/>
<path opacity="0.4" d="M15.4666 32H28.6666" stroke="#C01130" stroke-width="2" stroke-miterlimit="10" stroke-linecap="round" stroke-linejoin="round"/>
<path opacity="0.4" d="M22 58.666V48.666" stroke="#C01130" stroke-width="2" stroke-miterlimit="10" stroke-linecap="round" stroke-linejoin="round"/>
</svg>
