<svg width="64" height="64" viewBox="0 0 64 64" fill="none" xmlns="http://www.w3.org/2000/svg">
<path d="M34.6932 7.7875L50.4266 14.7742C54.9599 16.7742 54.9599 20.0808 50.4266 22.0808L34.6932 29.0675C32.9066 29.8675 29.9732 29.8675 28.1866 29.0675L12.4532 22.0808C7.91989 20.0808 7.91989 16.7742 12.4532 14.7742L28.1866 7.7875C29.9732 6.9875 32.9066 6.9875 34.6932 7.7875Z" stroke="#C01130" stroke-width="2" stroke-linecap="round" stroke-linejoin="round"/>
<path opacity="0.4" d="M8 29.334C8 31.574 9.68 34.1606 11.7333 35.0673L29.84 43.1207C31.2267 43.734 32.8 43.734 34.16 43.1207L52.2667 35.0673C54.32 34.1606 56 31.574 56 29.334" stroke="#C01130" stroke-width="2" stroke-linecap="round" stroke-linejoin="round"/>
<path opacity="0.4" d="M8 42.666C8 45.146 9.46667 47.386 11.7333 48.3993L29.84 56.4527C31.2267 57.066 32.8 57.066 34.16 56.4527L52.2667 48.3993C54.5333 47.386 56 45.146 56 42.666" stroke="#C01130" stroke-width="2" stroke-linecap="round" stroke-linejoin="round"/>
</svg>
