<svg xmlns="http://www.w3.org/2000/svg" width="172" height="32" viewBox="0 0 172 32" fill="none"><path d="M0 0V32H7.96445V13.0859L17.8088 7.40166C17.8088 11.5605 17.8088 15.7193 17.8088 19.8781L24.0355 23.4645C24.0355 26.3084 24.0355 29.1542 24.0355 31.9982H32V0H0Z" fill="#C01130"></path><path d="M12.8303 28.6944C14.9059 28.6944 15.7313 28.6944 17.8088 28.6944V19.88L12.8303 22.7553V28.6944Z" fill="#C01130"></path><path d="M49.69 24.22H47.38V31.3H41V8.16H51.03C56.02 8.16 59.64 11.51 59.64 16.35C59.64 19.19 58.25 21.52 55.97 22.89L60.57 31.31H53.45L49.69 24.22ZM47.38 18.85H50.29C52.07 18.85 53.1 17.78 53.1 16.33C53.1 14.88 52.07 13.82 50.29 13.82H47.38V18.85Z" fill="white"></path><path d="M60.29 22.38C60.29 16.84 64.48 12.87 70.3 12.87C76.1 12.87 80.31 16.85 80.31 22.38C80.31 27.9 76.1 31.89 70.3 31.89C64.48 31.89 60.29 27.89 60.29 22.38ZM74.15 22.38C74.15 20.03 72.54 18.39 70.3 18.39C68.06 18.39 66.45 20.02 66.45 22.38C66.45 24.74 68.06 26.37 70.3 26.37C72.54 26.36 74.15 24.74 74.15 22.38Z" fill="white"></path><path d="M81.46 22.35C81.46 16.82 85.57 12.89 91.34 12.89C96.36 12.89 100.12 16.05 100.79 20.8H94.8C94.28 19.34 92.92 18.4 91.32 18.4C89.16 18.4 87.62 20.04 87.62 22.37C87.62 24.7 89.18 26.38 91.32 26.38C92.97 26.38 94.31 25.37 94.82 23.77H100.86C100.16 28.62 96.35 31.89 91.32 31.89C85.59 31.89 81.46 27.88 81.46 22.35Z" fill="white"></path><path d="M102.19 7H108.34V31.3H102.19V7Z" fill="white"></path><path d="M129.89 13.43V31.29H125.14L124.61 30.03C123.15 31.21 121.3 31.9 119.22 31.9C113.76 31.9 109.86 27.92 109.86 22.37C109.86 16.84 113.76 12.9 119.22 12.9C121.32 12.9 123.2 13.6 124.68 14.82L125.31 13.44L129.89 13.43ZM124.04 22.37C124.04 20.05 122.35 18.31 120.04 18.31C117.72 18.31 116.04 20.05 116.04 22.37C116.04 24.7 117.73 26.44 120.04 26.44C122.35 26.44 124.04 24.7 124.04 22.37Z" fill="white"></path><path d="M150.09 20.42V31.3H143.94V21.27C143.94 19.19 143.16 18.16 141.61 18.16C139.69 18.16 138.59 19.5 138.59 21.77V31.31H132.44V13.45H136.75L137.6 15.29C138.93 13.81 140.91 12.92 143.22 12.92C147.36 12.92 150.09 15.87 150.09 20.42Z" fill="white"></path><path d="M171.3 7V31.3H166.75L166.17 29.97C164.72 31.19 162.86 31.9 160.78 31.9C155.3 31.9 151.4 27.92 151.4 22.37C151.4 16.82 155.3 12.86 160.78 12.86C162.43 12.86 163.94 13.3 165.22 14.1V7H171.3ZM165.6 22.38C165.6 20.05 163.91 18.29 161.6 18.29C159.29 18.29 157.6 20.04 157.6 22.38C157.6 24.71 159.29 26.47 161.6 26.47C163.91 26.47 165.6 24.71 165.6 22.38Z" fill="white"></path></svg>