<svg width="64" height="64" viewBox="0 0 64 64" fill="none" xmlns="http://www.w3.org/2000/svg">
<path opacity="0.4" d="M49.2533 44.8807L50.2933 53.3073C50.5599 55.5206 48.1866 57.0672 46.2933 55.9206L35.1199 49.2806C33.8932 49.2806 32.6933 49.2007 31.5199 49.0407C33.4933 46.7207 34.6666 43.7873 34.6666 40.6139C34.6666 33.0406 28.1066 26.9074 19.9999 26.9074C16.9066 26.9074 14.0533 27.7873 11.6799 29.334C11.5999 28.6673 11.5732 28.0006 11.5732 27.3073C11.5732 15.174 22.1066 5.33398 35.1199 5.33398C48.1332 5.33398 58.6666 15.174 58.6666 27.3073C58.6666 34.5073 54.9599 40.8807 49.2533 44.8807Z" stroke="#C01130" stroke-width="2" stroke-linecap="round" stroke-linejoin="round"/>
<path d="M34.6666 40.6128C34.6666 43.7861 33.4933 46.7196 31.5199 49.0396C28.8799 52.2396 24.6933 54.2928 19.9999 54.2928L13.0399 58.4261C11.8666 59.1461 10.3732 58.1595 10.5332 56.7995L11.1999 51.5462C7.62658 49.0662 5.33325 45.0928 5.33325 40.6128C5.33325 35.9195 7.83993 31.7862 11.6799 29.3328C14.0533 27.7862 16.9066 26.9062 19.9999 26.9062C28.1066 26.9063 34.6666 33.0395 34.6666 40.6128Z" stroke="#C01130" stroke-width="2" stroke-linecap="round" stroke-linejoin="round"/>
</svg>
