<svg width="64" height="64" viewBox="0 0 64 64" fill="none" xmlns="http://www.w3.org/2000/svg">
<path d="M24.0001 50.6667C24.0001 52.6667 23.4401 54.56 22.4534 56.16C20.6134 59.2533 17.2267 61.3333 13.3334 61.3333C9.44008 61.3333 6.05342 59.2533 4.21342 56.16C3.22675 54.56 2.66675 52.6667 2.66675 50.6667C2.66675 44.7733 7.44008 40 13.3334 40C19.2267 40 24.0001 44.7733 24.0001 50.6667Z" stroke="#C01130" stroke-width="2" stroke-miterlimit="10" stroke-linecap="round" stroke-linejoin="round"/>
<path d="M9.17334 50.666L11.8133 53.306L17.4933 48.0527" stroke="#C01130" stroke-width="2" stroke-linecap="round" stroke-linejoin="round"/>
<path opacity="0.4" d="M47.3333 18.8006C46.6933 18.6939 46.0266 18.6673 45.3333 18.6673H18.6666C17.9199 18.6673 17.1999 18.7206 16.5066 18.8273C16.8799 18.0806 17.4133 17.3873 18.0533 16.7473L26.7199 8.05398C30.3733 4.42732 36.2933 4.42732 39.9466 8.05398L44.6133 12.7739C46.3199 14.4539 47.2266 16.5872 47.3333 18.8006Z" stroke="#C01130" stroke-width="2" stroke-linecap="round" stroke-linejoin="round"/>
<path d="M58.6666 31.9993V45.3327C58.6666 53.3327 53.3332 58.666 45.3332 58.666H20.3466C21.1733 57.9727 21.8932 57.1193 22.4532 56.1593C23.4399 54.5593 23.9999 52.666 23.9999 50.666C23.9999 44.7727 19.2266 39.9993 13.3333 39.9993C10.1333 39.9993 7.27992 41.4126 5.33325 43.626V31.9993C5.33325 24.746 9.70658 19.6793 16.5066 18.826C17.1999 18.7193 17.9199 18.666 18.6666 18.666H45.3332C46.0266 18.666 46.6932 18.6926 47.3332 18.7993C54.2132 19.5993 58.6666 24.6927 58.6666 31.9993Z" stroke="#C01130" stroke-width="2" stroke-linecap="round" stroke-linejoin="round"/>
<path opacity="0.4" d="M58.6666 33.334H50.6666C47.7333 33.334 45.3333 35.734 45.3333 38.6673C45.3333 41.6007 47.7333 44.0007 50.6666 44.0007H58.6666" stroke="#C01130" stroke-width="2" stroke-linecap="round" stroke-linejoin="round"/>
</svg>
